<?xml version="1.0" encoding="UTF-8"?>
<!-- Generated by Pixelmator Pro 3.3.2 -->
<svg width="1024" height="1024" viewBox="0 0 1024 1024" xmlns="http://www.w3.org/2000/svg" xmlns:xlink="http://www.w3.org/1999/xlink">
    <linearGradient id="linearGradient1" x1="0.5" y1="511" x2="1024.5" y2="511" gradientUnits="userSpaceOnUse" gradientTransform="matrix(0 -1 1 0 1.5 1023.5)">
        <stop offset="0" stop-color="#0d62ff" stop-opacity="1"/>
        <stop offset="1" stop-color="#42a5f5" stop-opacity="1"/>
    </linearGradient>
    <path id="Rectangle" fill="url(#linearGradient1)" fill-rule="evenodd" stroke="none" d="M 1025 1023 L 1025 -1 L -0 -1 L 0 1023 Z"/>
    <path id="Path" fill="#ffffff" fill-rule="evenodd" stroke="none" d="M 694.138428 352 C 694.138428 352 861.187866 352 861.187866 352 C 861.187866 352 862.865723 351.134277 864 350 C 865.167847 348.832153 866 347.045166 866 347.045166 L 866 287 L 866 254.975708 C 866 254.975708 864.857178 252.832764 864 252 C 863.10376 251.129395 860.829834 250 860.829834 250 L 836.049316 250 C 836.049316 250 833.858154 251.139038 833 252 C 832.137573 252.865112 831 255.070801 831 255.070801 L 831 278 C 831 278 829.849854 280.150146 829 281 C 828.150146 281.849854 826 283 826 283 L 799 283 C 799 283 796.849854 281.849854 796 281 C 795.150146 280.150146 794 278 794 278 L 794 255.152344 C 794 255.152344 792.877319 252.882568 792 252 C 791.130859 251.12561 788.888672 250 788.888672 250 L 766.02124 250 C 766.02124 250 764.183472 250.816528 763 252 C 761.875732 253.124268 761 254.769653 761 254.769653 L 761 278 C 761 278 759.849854 280.150146 759 281 C 758.150146 281.849854 756 283 756 283 L 730 283 C 730 283 727.849854 281.849854 727 281 C 726.150146 280.150146 725 278 725 278 L 725 255.026489 C 725 255.026489 723.852661 252.857422 723 252 C 722.154541 251.14978 720.010254 250 720.010254 250 L 693.974243 250 C 693.974243 250 691.839844 251.150269 691 252 C 690.145264 252.864746 689 255.050537 689 255.050537 L 689 287 L 689 347.149414 C 689 347.149414 689.715454 348.787354 691 350 C 692.284546 351.212646 694.138428 352 694.138428 352 Z"/>
    <path id="path1" fill="#ffffff" fill-rule="evenodd" stroke="none" d="M 533.75 212.220215 L 533.75 266.779785 L 623 239.5 Z"/>
    <path id="path2" fill="#ffffff" fill-rule="evenodd" stroke="none" d="M 503 421 L 521 421 L 521 211 L 503 211 Z"/>
    <path id="Path-copy-3" fill="#ffffff" fill-rule="evenodd" stroke="none" d="M 162.138428 352 C 162.138428 352 329.187866 352 329.187866 352 C 329.187866 352 330.865723 351.134277 332 350 C 333.167847 348.832153 334 347.045166 334 347.045166 L 334 287 L 334 254.975708 C 334 254.975708 332.857178 252.832764 332 252 C 331.10376 251.129395 328.829834 250 328.829834 250 L 304.049316 250 C 304.049316 250 301.858154 251.139038 301 252 C 300.137573 252.865112 299 255.070801 299 255.070801 L 299 278 C 299 278 297.849854 280.150146 297 281 C 296.150146 281.849854 294 283 294 283 L 267 283 C 267 283 264.849854 281.849854 264 281 C 263.150146 280.150146 262 278 262 278 L 262 255.152344 C 262 255.152344 260.877319 252.882568 260 252 C 259.130859 251.12561 256.888672 250 256.888672 250 L 234.02124 250 C 234.02124 250 232.183472 250.816528 231 252 C 229.875732 253.124268 229 254.769653 229 254.769653 L 229 278 C 229 278 227.849854 280.150146 227 281 C 226.150146 281.849854 224 283 224 283 L 198 283 C 198 283 195.849854 281.849854 195 281 C 194.150146 280.150146 193 278 193 278 L 193 255.026489 C 193 255.026489 191.852661 252.857422 191 252 C 190.154541 251.14978 188.010254 250 188.010254 250 L 161.974243 250 C 161.974243 250 159.839844 251.150269 159 252 C 158.145264 252.864746 157 255.050537 157 255.050537 L 157 287 L 157 347.149414 C 157 347.149414 157.715454 348.787354 159 350 C 160.284546 351.212646 162.138428 352 162.138428 352 Z"/>
    <path id="Path-copy-5" fill="#ffffff" fill-rule="evenodd" stroke="none" d="M 273 444 C 273 444 756 444 756 444 C 756 444 798.356567 453.616943 818 479 C 845.096191 514.01355 849 548 849 548 L 850 677.872559 L 849 807 C 849 807 847.849854 809.150146 847 810 C 846.150146 810.849854 844 812 844 812 L 714 812 C 714 812 711.849854 810.849854 711 810 C 710.150146 809.150146 709 807 709 807 L 709 736 C 709 736 709.1073 711.640747 709.1073 699.460815 C 709.1073 660.460815 707.036377 640.495117 700 628 C 688.920044 608.324341 679 593 642 593 C 605.371704 593 588 628 588 628 C 588 628 580.099487 633.842773 579 701 C 578.803589 712.998413 579 737 579 737 L 579 807 C 579 807 577.849854 809.150146 577 810 C 576.150146 810.849854 574 812 574 812 L 450 812 C 450 812 447.849854 810.849854 447 810 C 446.150146 809.150146 445 807 445 807 L 445 737 C 445 737 445 721.651978 445 701 C 445 653 445.03064 650.030884 435 628 C 425.499023 607.13269 405.126953 594 381 594 C 354.98999 594 333.99646 607.44873 324 628 C 314.39563 647.745483 315.282593 674.021973 315.282593 702.442017 C 315.282593 722.393188 315 737 315 737 L 315 807 C 315 807 313.849854 809.150146 313 810 C 312.150146 810.849854 310 812 310 812 L 181 812 C 181 812 178.849854 810.849854 178 810 C 177.150146 809.150146 176 807 176 807 L 176 677.872559 L 176 548 C 176 548 183.52594 506.314087 207 480 C 238.466614 444.726318 273 444 273 444 Z"/>
    <path id="path3" fill="#ffffff" fill-rule="evenodd" stroke="none" d="M 173 427 L 173 494 C 173 494 195.65509 457.987793 213 446 C 238.696777 428.239868 259.116455 427 259.116455 427 C 259.116455 427 312 427 312 427 C 312 427 313.821533 426.178467 315 425 C 316.16333 423.83667 317 422.064331 317 422.064331 L 317 372.022583 C 317 372.022583 315.851685 369.856812 315 369 C 314.156006 368.150879 312.016968 367 312.016968 367 L 177.981262 367 C 177.981262 367 175.84906 368.156738 175 369 C 174.159546 369.834717 173 371.937378 173 371.937378 L 173 427 Z"/>
    <path id="Path-copy-4" fill="#ffffff" fill-rule="evenodd" stroke="none" d="M 850 427 L 850 494 C 850 494 827.34491 457.987793 810 446 C 784.303223 428.239868 763.883545 427 763.883545 427 C 763.883545 427 711 427 711 427 C 711 427 709.178467 426.178467 708 425 C 706.83667 423.83667 706 422.064331 706 422.064331 L 706 372.022583 C 706 372.022583 707.148315 369.856812 708 369 C 708.843994 368.150879 710.983032 367 710.983032 367 L 845.018738 367 C 845.018738 367 847.15094 368.156738 848 369 C 848.840454 369.834717 850 371.937378 850 371.937378 L 850 427 Z"/>
</svg>
