<?xml version="1.0" encoding="UTF-8" standalone="no"?>
<!-- Generated by Pixelmator Pro 2.4.5 -->

<svg
   width="1024"
   height="1024"
   viewBox="0 0 1024 1024"
   version="1.1"
   id="svg10"
   sodipodi:docname="Moot Logo - Square Blue.svg"
   inkscape:version="1.2 (dc2aedaf03, 2022-05-15)"
   xmlns:inkscape="http://www.inkscape.org/namespaces/inkscape"
   xmlns:sodipodi="http://sodipodi.sourceforge.net/DTD/sodipodi-0.dtd"
   xmlns="http://www.w3.org/2000/svg"
   xmlns:svg="http://www.w3.org/2000/svg">
  <defs
     id="defs14" />
  <sodipodi:namedview
     id="namedview12"
     pagecolor="#ffffff"
     bordercolor="#000000"
     borderopacity="0.25"
     inkscape:showpageshadow="2"
     inkscape:pageopacity="0.0"
     inkscape:pagecheckerboard="true"
     inkscape:deskcolor="#d1d1d1"
     showgrid="false"
     inkscape:zoom="0.74707031"
     inkscape:cx="647.19477"
     inkscape:cy="512"
     inkscape:window-width="1620"
     inkscape:window-height="1010"
     inkscape:window-x="-6"
     inkscape:window-y="-6"
     inkscape:window-maximized="1"
     inkscape:current-layer="svg10" />
  <g
     id="g211"
     inkscape:label="Moot Castle"
     transform="matrix(1.3890093,0,0,1.3890093,-198.47826,-198.47826)"
     style="fill:#42a5f5;fill-opacity:1">
    <path
       id="Path"
       fill="#42a5f5"
       fill-rule="evenodd"
       stroke="none"
       d="m 694.13843,352 c 0,0 167.04944,0 167.04944,0 0,0 1.67785,-0.86572 2.81213,-2 1.16785,-1.16785 2,-2.95483 2,-2.95483 V 287 254.97571 c 0,0 -1.14282,-2.14295 -2,-2.97571 -0.89624,-0.87061 -3.17017,-2 -3.17017,-2 h -24.78051 c 0,0 -2.19117,1.13904 -3.04932,2 -0.86243,0.86511 -2,3.0708 -2,3.0708 V 278 c 0,0 -1.15015,2.15015 -2,3 -0.84985,0.84985 -3,2 -3,2 h -27 c 0,0 -2.15015,-1.15015 -3,-2 -0.84985,-0.84985 -2,-3 -2,-3 v -22.84766 c 0,0 -1.12268,-2.26977 -2,-3.15234 -0.86914,-0.87439 -3.11133,-2 -3.11133,-2 h -22.86743 c 0,0 -1.83777,0.81653 -3.02124,2 -1.12427,1.12427 -2,2.76965 -2,2.76965 V 278 c 0,0 -1.15015,2.15015 -2,3 -0.84985,0.84985 -3,2 -3,2 h -26 c 0,0 -2.15015,-1.15015 -3,-2 -0.84985,-0.84985 -2,-3 -2,-3 v -22.97351 c 0,0 -1.14734,-2.16907 -2,-3.02649 -0.84546,-0.85022 -2.98975,-2 -2.98975,-2 h -26.03601 c 0,0 -2.1344,1.15027 -2.97424,2 -0.85474,0.86475 -2,3.05054 -2,3.05054 V 287 347.14941 c 0,0 0.71545,1.63794 2,2.85059 1.28455,1.21265 3.13843,2 3.13843,2 z"
       style="fill:#42a5f5;fill-opacity:1"
       inkscape:label="Right Rampart" />
    <path
       id="Flag"
       fill="#42a5f5"
       fill-rule="evenodd"
       stroke="none"
       d="m 533.75,212.22021 v 54.55957 L 623,239.5 Z"
       style="fill:#42a5f5;fill-opacity:1" />
    <path
       id="Rectangle"
       fill="#42a5f5"
       fill-rule="evenodd"
       stroke="none"
       d="m 503,421 h 18 V 211 h -18 z"
       style="fill:#42a5f5;fill-opacity:1"
       inkscape:label="Flag Pole" />
    <path
       id="Path-copy-3"
       fill="#42a5f5"
       fill-rule="evenodd"
       stroke="none"
       d="m 162.13843,352 c 0,0 167.04944,0 167.04944,0 0,0 1.67785,-0.86572 2.81213,-2 1.16785,-1.16785 2,-2.95483 2,-2.95483 V 287 254.97571 c 0,0 -1.14282,-2.14295 -2,-2.97571 -0.89624,-0.87061 -3.17017,-2 -3.17017,-2 h -24.78051 c 0,0 -2.19117,1.13904 -3.04932,2 -0.86243,0.86511 -2,3.0708 -2,3.0708 V 278 c 0,0 -1.15015,2.15015 -2,3 -0.84985,0.84985 -3,2 -3,2 h -27 c 0,0 -2.15015,-1.15015 -3,-2 -0.84985,-0.84985 -2,-3 -2,-3 v -22.84766 c 0,0 -1.12268,-2.26977 -2,-3.15234 -0.86914,-0.87439 -3.11133,-2 -3.11133,-2 h -22.86743 c 0,0 -1.83777,0.81653 -3.02124,2 -1.12427,1.12427 -2,2.76965 -2,2.76965 V 278 c 0,0 -1.15015,2.15015 -2,3 -0.84985,0.84985 -3,2 -3,2 h -26 c 0,0 -2.15015,-1.15015 -3,-2 -0.84985,-0.84985 -2,-3 -2,-3 v -22.97351 c 0,0 -1.14734,-2.16907 -2,-3.02649 -0.84546,-0.85022 -2.98975,-2 -2.98975,-2 h -26.03601 c 0,0 -2.1344,1.15027 -2.97424,2 -0.85474,0.86475 -2,3.05054 -2,3.05054 V 287 347.14941 c 0,0 0.71545,1.63794 2,2.85059 1.28455,1.21265 3.13843,2 3.13843,2 z"
       style="fill:#42a5f5;fill-opacity:1"
       inkscape:label="Left Rampart" />
    <path
       id="Path-copy-5"
       fill="#42a5f5"
       fill-rule="evenodd"
       stroke="none"
       d="m 273,444 c 0,0 483,0 483,0 0,0 42.35657,9.61694 62,35 27.09619,35.01355 31,69 31,69 L 850,677.87256 849,807 c 0,0 -1.15015,2.15015 -2,3 -0.84985,0.84985 -3,2 -3,2 H 714 c 0,0 -2.15015,-1.15015 -3,-2 -0.84985,-0.84985 -2,-3 -2,-3 v -71 c 0,0 0.1073,-24.35925 0.1073,-36.53918 0,-39 -2.07092,-58.9657 -9.1073,-71.46082 -11.07996,-19.67566 -21,-35 -58,-35 -36.6283,0 -54,35 -54,35 0,0 -7.90051,5.84277 -9,73 -0.19641,11.99841 0,36 0,36 v 70 c 0,0 -1.15015,2.15015 -2,3 -0.84985,0.84985 -3,2 -3,2 H 450 c 0,0 -2.15015,-1.15015 -3,-2 -0.84985,-0.84985 -2,-3 -2,-3 v -70 c 0,0 0,-15.34802 0,-36 0,-48 0.0306,-50.96912 -10,-73 -9.50098,-20.86731 -29.87305,-34 -54,-34 -26.01001,0 -47.00354,13.44873 -57,34 -9.60437,19.74548 -8.71741,46.02197 -8.71741,74.44202 C 315.28259,722.39319 315,737 315,737 v 70 c 0,0 -1.15015,2.15015 -2,3 -0.84985,0.84985 -3,2 -3,2 H 181 c 0,0 -2.15015,-1.15015 -3,-2 -0.84985,-0.84985 -2,-3 -2,-3 V 677.87256 548 c 0,0 7.52594,-41.68591 31,-68 31.46661,-35.27368 66,-36 66,-36 z"
       style="fill:#42a5f5;fill-opacity:1"
       inkscape:label="Moot &quot;M&quot;" />
    <path
       id="path2"
       fill="#42a5f5"
       fill-rule="evenodd"
       stroke="none"
       d="m 173,427 v 67 c 0,0 22.65509,-36.01221 40,-48 25.69678,-17.76013 46.11645,-19 46.11645,-19 0,0 52.88355,0 52.88355,0 0,0 1.82153,-0.82153 3,-2 1.16333,-1.16333 2,-2.93567 2,-2.93567 v -50.04175 c 0,0 -1.14832,-2.16577 -2,-3.02258 -0.84399,-0.84912 -2.98303,-2 -2.98303,-2 H 177.98126 c 0,0 -2.1322,1.15674 -2.98126,2 -0.84045,0.83472 -2,2.93738 -2,2.93738 z"
       style="fill:#42a5f5;fill-opacity:1"
       inkscape:label="Left Turret" />
    <path
       id="Path-copy-4"
       fill="#42a5f5"
       fill-rule="evenodd"
       stroke="none"
       d="m 850,427 v 67 c 0,0 -22.65509,-36.01221 -40,-48 -25.69678,-17.76013 -46.11645,-19 -46.11645,-19 0,0 -52.88355,0 -52.88355,0 0,0 -1.82153,-0.82153 -3,-2 -1.16333,-1.16333 -2,-2.93567 -2,-2.93567 v -50.04175 c 0,0 1.14832,-2.16577 2,-3.02258 0.84399,-0.84912 2.98303,-2 2.98303,-2 h 134.03571 c 0,0 2.1322,1.15674 2.98126,2 0.84045,0.83472 2,2.93738 2,2.93738 z"
       style="fill:#42a5f5;fill-opacity:1"
       inkscape:label="Right Turret" />
  </g>
</svg>
