<svg xmlns="http://www.w3.org/2000/svg" viewBox="0 0 150 69.53"><defs><linearGradient id="linear-gradient" x1="93.71" y1="67.2" x2="71.31" y2="35.21" gradientUnits="userSpaceOnUse"><stop offset="0" stop-color="#b1e001"/><stop offset=".5" stop-color="#ff6d15"/><stop offset="1" stop-color="#ff00c0"/></linearGradient><style>.cls-1{fill:#253746}</style></defs><g id="Layer_1" data-name="Layer 1"><path class="cls-1" d="M216.59 105.29h-10.5V52.8h10.5Z" transform="translate(-66.59 -35.77)"/><path d="M83.62 35.77a17 17 0 1 0 17 17 17 17 0 0 0-17-17Zm0 26.64a9.62 9.62 0 1 1 9.62-9.62 9.62 9.62 0 0 1-9.62 9.62Z" transform="translate(-66.59 -35.77)" style="fill:url(#linear-gradient)"/><path class="cls-1" d="M101.14 38.04V17.03H90.63v52.49h10.51V48.54h10.31l10.48-10.5h-20.79z"/><path class="cls-1" d="M108.36 68.53a15.1 15.1 0 0 1 1.24-6.11A16 16 0 0 1 118 54a15.16 15.16 0 0 1 6.12-1.25h31.22L144.9 63.3h-20.8a5.21 5.21 0 0 0-4.84 3.18 5.2 5.2 0 0 0-.4 2 5.27 5.27 0 0 0 .4 2.07 5.14 5.14 0 0 0 1.12 1.69 5.3 5.3 0 0 0 1.67 1.11 5.13 5.13 0 0 0 2 .4h10.5a15.4 15.4 0 0 1 6.18 1.25 15.69 15.69 0 0 1 8.39 8.38 16 16 0 0 1 0 12.25 15.91 15.91 0 0 1-3.37 5 16.14 16.14 0 0 1-5 3.38 15.24 15.24 0 0 1-6.13 1.25h-33.97l10.63-10.51h23.32a5.18 5.18 0 0 0 3.72-1.52 5.37 5.37 0 0 0 1.11-1.66 5.21 5.21 0 0 0 .41-2 5.14 5.14 0 0 0-.41-2 5.3 5.3 0 0 0-1.11-1.67 5.16 5.16 0 0 0-1.67-1.12 5.35 5.35 0 0 0-2.05-.4h-10.5a15.15 15.15 0 0 1-6.1-1.31 16 16 0 0 1-8.38-8.4 15.28 15.28 0 0 1-1.26-6.14ZM199.2 105.29h-10.5v-52.5h10.5Z" transform="translate(-66.59 -35.77)"/></g></svg>